<svg width="199" height="50" fill="none" xmlns="http://www.w3.org/2000/svg"><path d="M70.285 2.121A1 1 0 1071.7.707a1 1 0 00-1.414 1.414zm0 47a1 1 0 101.414-1.414 1 1 0 00-1.414 1.414zm.707-31.161a.967.967 0 01-.99-.99c0-.565.425-.99.99-.99.566 0 .99.425.99.99 0 .566-.424.99-.99.99zm0 15.557a.967.967 0 01-.99-.99c0-.566.425-.99.99-.99.566 0 .99.424.99.99 0 .566-.424.99-.99.99zM57.133 2.404a.967.967 0 01-.99-.99c0-.565.424-.99.99-.99.566 0 .99.425.99.99-.071.495-.495.92-.99.99zm0 47a.967.967 0 01-.99-.99c0-.566.424-.99.99-.99.566 0 .99.425.99.99-.071.495-.495.92-.99.99zm-.707-31.726a1 1 0 101.414-1.414 1 1 0 00-1.414 1.414zm0 15.556a1 1 0 101.414-1.414 1 1 0 00-1.414 1.414zM43.133 2.404a.967.967 0 01-.99-.99c0-.565.424-.99.99-.99.566 0 .99.425.99.99.07.495-.424.99-.99.99zm0 47a.967.967 0 01-.99-.99c0-.566.424-.99.99-.99.566 0 .99.425.99.99.07.495-.424.99-.99.99zm-.707-31.726a1 1 0 101.414-1.414 1 1 0 00-1.414 1.414zm0 15.556a1 1 0 101.414-1.414 1 1 0 00-1.414 1.414zM29.273 2.404a.967.967 0 01-.99-.99c0-.565.425-.99.99-.99.566 0 .99.425.99.99 0 .566-.424.99-.99.99zm0 47a.967.967 0 01-.99-.99c0-.566.425-.99.99-.99.566 0 .99.425.99.99 0 .566-.424.99-.99.99zm0-31.444a.967.967 0 01-.99-.99c0-.565.425-.99.99-.99.566 0 .99.425.99.99 0 .566-.424.99-.99.99zm-.707 15.274a1 1 0 101.415-1.414 1 1 0 00-1.415 1.414zM15.414 2.404a.967.967 0 01-.99-.99c0-.565.424-.99.99-.99.566 0 .99.425.99.99a1.2 1.2 0 01-.99.99zm0 47a.967.967 0 01-.99-.99c0-.566.424-.99.99-.99.566 0 .99.425.99.99a1.2 1.2 0 01-.99.99zm-.707-31.726a1 1 0 101.414-1.414 1 1 0 00-1.414 1.414zm0 15.556a1 1 0 101.414-1.414 1 1 0 00-1.414 1.414zM1.414 2.404a.967.967 0 01-.99-.99c0-.565.424-.99.99-.99.566 0 .99.425.99.99.07.495-.424.99-.99.99zm0 47a.967.967 0 01-.99-.99c0-.566.424-.99.99-.99.566 0 .99.425.99.99.07.495-.424.99-.99.99zM.707 17.678a1 1 0 101.414-1.414 1 1 0 00-1.414 1.414zm0 15.556a1 1 0 101.414-1.414 1 1 0 00-1.414 1.414zM154.285 2.121a1 1 0 101.414-1.413 1 1 0 00-1.414 1.413zm42.281 0a1.001 1.001 0 101.415-1.416 1.001 1.001 0 00-1.415 1.416zm-42.281 47a1 1 0 101.414-1.414 1 1 0 00-1.414 1.414zm42.281 0a1.001 1.001 0 101.415-1.416 1.001 1.001 0 00-1.415 1.416zM154.992 17.96a.967.967 0 01-.99-.99c0-.565.425-.99.99-.99.566 0 .99.425.99.99 0 .566-.424.99-.99.99zm42.281 0a.967.967 0 01-.99-.99c0-.565.425-.99.99-.99.566 0 .99.425.99.99 0 .566-.424.99-.99.99zm-42.281 15.557a.967.967 0 01-.99-.99c0-.566.425-.99.99-.99.566 0 .99.424.99.99 0 .566-.424.99-.99.99zm42.281 0a.967.967 0 01-.99-.99c0-.566.425-.99.99-.99.566 0 .99.424.99.99 0 .566-.424.99-.99.99zm-56.14-31.113a.967.967 0 01-.99-.99c0-.565.424-.99.99-.99.565 0 .99.425.99.99-.071.495-.495.92-.99.99zm42.281 0a.967.967 0 01-.99-.99c0-.565.424-.99.99-.99.566 0 .99.425.99.99-.071.495-.495.92-.99.99zm-42.281 47a.967.967 0 01-.99-.99c0-.566.424-.99.99-.99.565 0 .99.425.99.99-.071.495-.495.92-.99.99zm42.281 0a.967.967 0 01-.99-.99c0-.566.424-.99.99-.99.566 0 .99.425.99.99-.071.495-.495.92-.99.99zm-42.988-31.726a1 1 0 101.414-1.414 1 1 0 00-1.414 1.414zm42.281 0a1 1 0 101.414-1.414 1 1 0 00-1.414 1.414zm-42.281 15.556a1 1 0 101.414-1.414 1 1 0 00-1.414 1.414zm42.281 0a1 1 0 101.414-1.414 1 1 0 00-1.414 1.414zm-55.574-30.83a.967.967 0 01-.99-.99c0-.565.424-.99.99-.99.565 0 .99.425.99.99.07.495-.425.99-.99.99zm42.281 0a.967.967 0 01-.99-.99c0-.565.424-.99.99-.99.566 0 .99.425.99.99.071.495-.424.99-.99.99zm-42.281 47a.967.967 0 01-.99-.99c0-.566.424-.99.99-.99.565 0 .99.425.99.99.07.495-.425.99-.99.99zm42.281 0a.967.967 0 01-.99-.99c0-.566.424-.99.99-.99.566 0 .99.425.99.99.071.495-.424.99-.99.99zm-42.988-31.726a1 1 0 101.414-1.414 1 1 0 00-1.414 1.414zm42.281 0a1 1 0 101.414-1.414 1 1 0 00-1.414 1.414zm-42.281 15.556a1 1 0 101.414-1.414 1 1 0 00-1.414 1.414zm42.281 0a1 1 0 101.414-1.414 1 1 0 00-1.414 1.414zm-55.434-30.83a.967.967 0 01-.99-.99c0-.565.425-.99.99-.99.566 0 .99.425.99.99 0 .566-.424.99-.99.99zm0 47a.967.967 0 01-.99-.99c0-.566.425-.99.99-.99.566 0 .99.425.99.99 0 .566-.424.99-.99.99zm0-31.444a.967.967 0 01-.99-.99c0-.565.425-.99.99-.99.566 0 .99.425.99.99 0 .566-.424.99-.99.99zm-.707 15.274a1.001 1.001 0 101.415-1.416 1.001 1.001 0 00-1.415 1.416zM99.414 2.404a.967.967 0 01-.99-.99c0-.565.424-.99.99-.99.566 0 .99.425.99.99-.071.495-.495.92-.99.99zm0 47a.967.967 0 01-.99-.99c0-.566.424-.99.99-.99.566 0 .99.425.99.99-.071.495-.495.92-.99.99zm-.707-31.726a1 1 0 101.414-1.414 1 1 0 00-1.414 1.414zm0 15.556a1 1 0 101.414-1.414 1 1 0 00-1.414 1.414zM85.414 2.404a.967.967 0 01-.99-.99c0-.565.424-.99.99-.99.566 0 .99.425.99.99.07.495-.424.99-.99.99zm0 47a.967.967 0 01-.99-.99c0-.566.424-.99.99-.99.566 0 .99.425.99.99.07.495-.424.99-.99.99zm-.707-31.726a1 1 0 101.414-1.414 1 1 0 00-1.414 1.414zm0 15.556a1 1 0 101.414-1.414 1 1 0 00-1.414 1.414z" fill="#A4A4A4"/></svg>