<svg width="34" height="157" fill="none" xmlns="http://www.w3.org/2000/svg"><path d="M2.121 86.121a1 1 0 10-1.414-1.414 1 1 0 001.414 1.414zm15.838-.707c0 .566-.424.99-.99.99a.967.967 0 01-.99-.99c0-.566.424-.99.99-.99.566 0 .99.424.99.99zm15.558 0c0 .566-.424.99-.99.99a.967.967 0 01-.99-.99c0-.566.425-.99.99-.99.566 0 .99.424.99.99zM2.404 99.274c0 .565-.424.99-.99.99a.967.967 0 01-.99-.99c0-.566.425-.99.99-.99.495.07.92.495.99.99zm15.272.706a1 1 0 10-1.414-1.413 1 1 0 001.414 1.414zm15.559 0a1 1 0 10-1.415-1.413 1 1 0 001.415 1.414zM2.404 113.274c0 .566-.424.99-.99.99a.967.967 0 01-.99-.99c0-.566.425-.99.99-.99.495-.07.99.424.99.99zm15.272.707a1 1 0 10-1.414-1.414 1 1 0 001.414 1.414zm15.559 0a1 1 0 10-1.414-1.414 1 1 0 001.414 1.414zM2.404 127.134a.966.966 0 01-.99.989.966.966 0 01-.99-.989c0-.566.425-.99.99-.99.566 0 .99.424.99.99zm15.555 0a.966.966 0 01-.99.989.966.966 0 01-.99-.989c0-.566.424-.99.99-.99.566 0 .99.424.99.99zm15.276.707a1.001 1.001 0 10-1.417-1.415 1.001 1.001 0 001.417 1.415zM2.404 140.993c0 .565-.424.99-.99.99a.967.967 0 01-.99-.99c0-.566.425-.99.99-.99.495.071.92.495.99.99zm15.272.707a1 1 0 10-1.414-1.414 1 1 0 001.414 1.414zm15.559 0a1 1 0 10-1.414-1.414 1 1 0 001.414 1.414zM2.404 154.994a.966.966 0 01-.99.989.966.966 0 01-.99-.989c0-.566.425-.99.99-.99.495-.071.99.424.99.99zm15.272.707a1.001 1.001 0 10-1.416-1.415 1.001 1.001 0 001.416 1.415zm15.559 0a1.001 1.001 0 10-1.417-1.415 1.001 1.001 0 001.417 1.415zM2.121 2.121A1 1 0 10.707.707a1 1 0 001.414 1.414zm15.838-.707c0 .566-.424.99-.99.99a.967.967 0 01-.99-.99c0-.566.424-.99.99-.99.566 0 .99.424.99.99zm15.558 0c0 .566-.424.99-.99.99a.967.967 0 01-.99-.99c0-.566.425-.99.99-.99.566 0 .99.424.99.99zM2.404 15.274c0 .565-.424.99-.99.99a.967.967 0 01-.99-.99c0-.566.425-.99.99-.99.495.07.92.495.99.99zm15.272.706a1 1 0 10-1.414-1.414 1 1 0 001.414 1.415zm15.559 0a1 1 0 10-1.415-1.414 1 1 0 001.415 1.415zM2.404 29.274c0 .566-.424.99-.99.99a.967.967 0 01-.99-.99c0-.566.425-.99.99-.99.495-.07.99.425.99.99zm15.272.707a1 1 0 10-1.414-1.414 1 1 0 001.414 1.414zm15.559 0a1 1 0 10-1.415-1.414 1 1 0 001.415 1.414zM2.404 43.133c0 .566-.424.99-.99.99a.967.967 0 01-.99-.99c0-.565.425-.99.99-.99.566 0 .99.425.99.99zm15.555 0c0 .566-.424.99-.99.99a.967.967 0 01-.99-.99c0-.565.424-.99.99-.99.566 0 .99.425.99.99zm15.276.707a1 1 0 10-1.415-1.414 1 1 0 001.415 1.415zM2.404 56.993c0 .566-.424.99-.99.99a.967.967 0 01-.99-.99c0-.566.425-.99.99-.99.495.07.92.495.99.99zm15.272.707a1 1 0 10-1.414-1.414 1 1 0 001.414 1.414zm15.559 0a1 1 0 10-1.415-1.414 1 1 0 001.415 1.414zM2.404 70.993c0 .566-.424.99-.99.99a.967.967 0 01-.99-.99c0-.565.425-.99.99-.99.495-.07.99.425.99.99zm15.272.707a1 1 0 10-1.414-1.414 1 1 0 001.414 1.415zm15.559 0a1 1 0 10-1.415-1.414 1 1 0 001.415 1.415z" fill="#B5B5B5"/></svg>