<svg width="666" height="223" fill="none" xmlns="http://www.w3.org/2000/svg"><mask id="a" style="mask-type:alpha" maskUnits="userSpaceOnUse" x="0" y="0" width="666" height="223"><path fill="#D9D9D9" d="M0 0h666v223H0z"/></mask><g mask="url(#a)" stroke="#E2E2E2"><path d="M665.5-110c0 183.635-148.865 332.5-332.5 332.5S.5 73.635.5-110 149.365-442.5 333-442.5 665.5-293.635 665.5-110zm-332 333v-776"/><path d="M347.5 144v21c0 8.008-6.492 14.5-14.5 14.5s-14.5-6.492-14.5-14.5v-21c0-8.008 6.492-14.5 14.5-14.5s14.5 6.492 14.5 14.5z" fill="#fff"/><path d="M335.5 142v9a2.5 2.5 0 11-5 0v-9a2.5 2.5 0 115 0z" fill="#fff"/></g><path d="M206.399 115.6c9.5 0 17.2-7.701 17.2-17.2 0-9.5-7.7-17.2-17.2-17.2-9.499 0-17.2 7.7-17.2 17.2 0 9.499 7.701 17.2 17.2 17.2z" fill="#F0C439"/><path d="M200.2 109.4c9.499 0 17.2-7.701 17.2-17.2 0-9.5-7.701-17.2-17.2-17.2-9.499 0-17.2 7.7-17.2 17.2 0 9.499 7.701 17.2 17.2 17.2z" stroke="#010101" stroke-miterlimit="10" stroke-linecap="round" stroke-linejoin="round"/></svg>